<!DOCTYPE svg PUBLIC "-//W3C//DTD SVG 1.1//EN" "http://www.w3.org/Graphics/SVG/1.1/DTD/svg11.dtd">
<!-- Uploaded to: SVG Repo, www.svgrepo.com, Transformed by: SVG Repo Mixer Tools -->
<svg fill="#ffffff" version="1.1" id="Layer_1" xmlns:x="&amp;ns_extend;" xmlns:i="&amp;ns_ai;" xmlns:graph="&amp;ns_graphs;" xmlns="http://www.w3.org/2000/svg" xmlns:xlink="http://www.w3.org/1999/xlink" width="800px" height="800px" viewBox="0 0 24 24" enable-background="new 0 0 24 24" xml:space="preserve">
<g id="SVGRepo_bgCarrier" stroke-width="0"/>
<g id="SVGRepo_tracerCarrier" stroke-linecap="round" stroke-linejoin="round"/>
<g id="SVGRepo_iconCarrier"> <metadata> <a0:sfw xmlns:a0="http://www.w3.org/2000/svg" xmlns="&amp;ns_sfw;"> <a0:slices> </a0:slices> <a0:slicesourcebounds width="505" height="984" bottomleftorigin="true" x="0" y="-120"> </a0:slicesourcebounds> </a0:sfw> </metadata> <g> <g> <g> <path d="M20,22H4c-2.2,0-4-1.8-4-4V3c0-0.6,0.4-1,1-1h19c0.6,0,1,0.4,1,1v14c0,0.6-0.4,1-1,1s-1-0.4-1-1V4H2v14c0,1.1,0.9,2,2,2 h16c0.6,0,1,0.4,1,1S20.6,22,20,22z"/> </g> </g> <g> <g> <path d="M12,4c-0.6,0-1-0.4-1-1s0.4-1,1-1h0c0.6,0,1,0.4,1,1S12.6,4,12,4z"/> </g> </g> <g> <g> <path d="M20,22h-5c-0.6,0-1-0.4-1-1s0.4-1,1-1h5c1.1,0,2-0.9,2-2V6h-2c-0.6,0-1-0.4-1-1s0.4-1,1-1h3c0.6,0,1,0.4,1,1v13 C24,20.2,22.2,22,20,22z"/> </g> </g> <g> <g> <path d="M10,14H5c-0.6,0-1-0.4-1-1V7c0-0.6,0.4-1,1-1h5c0.6,0,1,0.4,1,1v6C11,13.6,10.6,14,10,14z M6,12h3V8H6V12z"/> </g> </g> <g> <g> <path d="M16,8h-3c-0.6,0-1-0.4-1-1s0.4-1,1-1h3c0.6,0,1,0.4,1,1S16.6,8,16,8z"/> </g> </g> <g> <g> <path d="M16,11h-3c-0.6,0-1-0.4-1-1s0.4-1,1-1h3c0.6,0,1,0.4,1,1S16.6,11,16,11z"/> </g> </g> <g> <g> <path d="M16,14h-3c-0.6,0-1-0.4-1-1s0.4-1,1-1h3c0.6,0,1,0.4,1,1S16.6,14,16,14z"/> </g> </g> <g> <g> <path d="M16,18H5c-0.6,0-1-0.4-1-1s0.4-1,1-1h11c0.6,0,1,0.4,1,1S16.6,18,16,18z"/> </g> </g> </g> </g>
</svg>